HIERARCHY
ROOT Hips
{
 OFFSET 0.000000 0.000000 0.000000
 CHANNELS 6 Xposition Yposition Zposition Yrotation Xrotation Zrotation
 JOINT Chest
 {
  OFFSET 0.000000 10.383400 0.001500
  CHANNELS 3 Yrotation Xrotation Zrotation
  JOINT Chest2
  {
   OFFSET 0.000000 10.418200 -0.003100
   CHANNELS 3 Yrotation Xrotation Zrotation
   JOINT Chest3
   {
    OFFSET 0.000000 10.375100 0.000000
    CHANNELS 3 Yrotation Xrotation Zrotation
    JOINT Chest4
    {
     OFFSET 0.000000 10.364600 0.000000
     CHANNELS 3 Yrotation Xrotation Zrotation
     JOINT Neck
     {
      OFFSET 0.000000 15.642200 0.000000
      CHANNELS 3 Yrotation Xrotation Zrotation
      JOINT Head
      {
       OFFSET 0.000000 9.697300 -0.006500
       CHANNELS 3 Yrotation Xrotation Zrotation
       End Site
       {
        OFFSET 0.000000 18.492200 -0.003400
       }
      }
     }
     JOINT RightCollar
     {
      OFFSET -3.166800 10.349300 0.000000
      CHANNELS 3 Yrotation Xrotation Zrotation
      JOINT RightShoulder
      {
       OFFSET -14.729700 0.000000 0.000000
       CHANNELS 3 Yrotation Xrotation Zrotation
       JOINT RightElbow
       {
        OFFSET 0.000000 -32.224300 0.000000
        CHANNELS 3 Yrotation Xrotation Zrotation
        JOINT RightWrist
        {
         OFFSET 0.000000 -26.084100 0.000000
         CHANNELS 3 Yrotation Xrotation Zrotation
         End Site
         {
          OFFSET 0.000000 -19.319400 0.000000
         }
        }
       }
      }
     }
     JOINT LeftCollar
     {
      OFFSET 3.166800 10.349300 0.000000
      CHANNELS 3 Yrotation Xrotation Zrotation
      JOINT LeftShoulder
      {
       OFFSET 14.729700 0.000000 0.000000
       CHANNELS 3 Yrotation Xrotation Zrotation
       JOINT LeftElbow
       {
        OFFSET 0.000000 -32.224300 0.000000
        CHANNELS 3 Yrotation Xrotation Zrotation
        JOINT LeftWrist
        {
         OFFSET 0.000000 -26.084100 0.000000
         CHANNELS 3 Yrotation Xrotation Zrotation
         End Site
         {
          OFFSET 0.000000 -19.319400 0.000000
         }
        }
       }
      }
     }
    }
   }
  }
 }
 JOINT RightHip
 {
  OFFSET -8.428900 -0.007500 -0.000800
  CHANNELS 3 Yrotation Xrotation Zrotation
  JOINT RightKnee
  {
   OFFSET 0.000000 -43.834600 0.000700
   CHANNELS 3 Yrotation Xrotation Zrotation
   JOINT RightAnkle
   {
    OFFSET 0.000000 -42.757000 0.001200
    CHANNELS 3 Yrotation Xrotation Zrotation
    JOINT RightToe
    {
     OFFSET 0.000000 -6.946900 15.649300
     CHANNELS 3 Yrotation Xrotation Zrotation
     End Site
     {
      OFFSET 0.000000 -1.580800 6.825800
     }
    }
   }
  }
 }
 JOINT LeftHip
 {
  OFFSET 8.428900 -0.007500 -0.000800
  CHANNELS 3 Yrotation Xrotation Zrotation
  JOINT LeftKnee
  {
   OFFSET 0.000000 -43.834600 0.000700
   CHANNELS 3 Yrotation Xrotation Zrotation
   JOINT LeftAnkle
   {
    OFFSET 0.000000 -42.757000 0.001200
    CHANNELS 3 Yrotation Xrotation Zrotation
    JOINT LeftToe
    {
     OFFSET 0.000000 -6.946900 15.649300
     CHANNELS 3 Yrotation Xrotation Zrotation
     End Site
     {
      OFFSET 0.000000 -1.580800 6.825800
     }
    }
   }
  }
 }
}
MOTION
Frames: 15
Frame Time: 0.008333
0.000000 93.354300 0.000000 0.000000 -5.767877 0.000000 0.000000 11.653817 0.000000 0.000000 -5.885947 0.000000 0.000000 -0.000000 0.000000 0.000000 -0.000000 0.000000 0.000000 12.528835 0.000000 0.000000 0.711642 0.000000 0.000000 -0.000000 0.000000 0.000000 0.000000 -90.000000 0.000000 -2.309062 0.000000 0.000000 2.309062 0.000000 0.000000 -0.000000 0.000000 0.000000 -0.000000 90.000000 0.000000 -2.309062 0.000000 0.000000 2.309062 0.000000 0.000000 8.520406 0.000000 0.000000 1.905762 0.000000 -0.000000 -4.658285 0.000000 0.000000 -0.000000 0.000000 0.000000 8.520406 0.000000 0.000000 1.905762 0.000000 -0.000000 -4.658285 0.000000 0.000000 -0.000000 0.000000
124.374410 126.956969 32.442253 -13.544315 -28.668687 -2.172321 -1.971463 14.807342 1.820850 -0.198126 1.350571 0.187158 -0.333113 2.282828 0.312471 -1.781007 13.232869 1.651195 2.269073 14.907686 -1.340719 4.748183 -8.018578 -3.356932 -1.014790 -4.245004 -3.850923 8.595035 -14.307120 -7.753359 25.281917 -39.773861 -0.271024 5.023344 6.746946 -15.416711 -3.024915 -6.698705 -2.863008 -3.738302 -6.894658 6.927982 -31.683260 -46.446579 6.424887 -22.584500 8.148854 16.397914 -5.530419 -39.673213 -0.697942 -27.901009 78.575996 -26.571170 1.970312 -9.122041 3.296724 0.000385 -0.005407 0.000171 -4.903292 -33.396665 -5.350323 0.317412 73.320653 4.299883 -12.518909 -9.746630 -2.785564 0.000517 0.001276 0.000229
124.374903 126.957360 32.441996 -13.540039 -28.675160 -2.172366 -1.973894 14.806153 1.818521 -0.199524 1.356260 0.187452 -0.332744 2.281257 0.311878 -1.782151 13.227777 1.649873 2.270935 14.899334 -1.332756 4.747530 -8.012621 -3.349468 -1.014567 -4.238842 -3.847911 8.595349 -14.311530 -7.746973 25.270951 -39.758763 -0.274217 5.031668 6.743368 -15.410134 -3.024924 -6.693194 -2.859694 -3.749710 -6.905892 6.925801 -31.669738 -46.427979 6.416671 -22.579837 8.147403 16.397401 -5.534000 -39.667215 -0.698337 -27.921149 78.573528 -26.595685 1.969525 -9.121805 3.301512 -0.000265 -0.006203 -0.000117 -4.909241 -33.389509 -5.351784 0.314667 73.317341 4.294168 -12.517306 -9.742952 -2.785818 0.000896 0.000760 0.000398
124.375203 126.958321 32.442653 -13.533475 -28.688499 -2.173361 -1.978057 14.812609 1.814098 -0.199603 1.356614 0.187400 -0.333599 2.284826 0.313065 -1.782076 13.224438 1.649671 2.270358 14.899138 -1.327438 4.746049 -8.034852 -3.333004 -1.013276 -4.238364 -3.842187 8.593846 -14.307317 -7.748532 25.275893 -39.748317 -0.282653 5.030099 6.736939 -15.404870 -3.026160 -6.687383 -2.858366 -3.750364 -6.909662 6.925031 -31.668086 -46.420763 6.416202 -22.574481 8.149893 16.395079 -5.538060 -39.652895 -0.699465 -27.943024 78.572058 -26.622160 1.966976 -9.127879 3.306098 -0.001229 -0.008507 -0.000546 -4.910624 -33.372952 -5.356113 0.312075 73.312099 4.291679 -12.520188 -9.740507 -2.784677 0.000924 0.000681 0.000410
124.375799 126.958369 32.441650 -13.531436 -28.691927 -2.172639 -1.978215 14.810810 1.814285 -0.197521 1.355490 0.189140 -0.335743 2.286078 0.312037 -1.783602 13.230001 1.649116 2.269745 14.893961 -1.325352 4.744470 -8.044687 -3.329059 -1.007131 -4.243004 -3.842491 8.586114 -14.315641 -7.746616 25.278429 -39.734013 -0.281503 5.029190 6.735184 -15.403354 -3.028913 -6.693236 -2.856442 -3.747773 -6.906961 6.921554 -31.667168 -46.418124 6.415364 -22.568330 8.152813 16.394096 -5.532786 -39.649259 -0.701767 -27.976736 78.569144 -26.655526 1.967400 -9.130165 3.310163 -0.001105 -0.007792 -0.000490 -4.910841 -33.368399 -5.354807 0.307357 73.307664 4.286792 -12.543242 -9.736126 -2.782851 -0.000710 0.000862 -0.000315
124.376396 126.958483 32.440853 -13.528659 -28.696627 -2.171752 -1.977126 14.812777 1.815437 -0.200055 1.357843 0.187520 -0.336232 2.285168 0.311785 -1.779469 13.235782 1.649668 2.268296 14.887159 -1.323674 4.741772 -8.053440 -3.326514 -1.008607 -4.252488 -3.841286 8.583899 -14.319301 -7.747102 25.277011 -39.725507 -0.278052 5.031547 6.734105 -15.404642 -3.028536 -6.709402 -2.845640 -3.749833 -6.897674 6.908759 -31.666663 -46.411046 6.420191 -22.565909 8.145725 16.390223 -5.531707 -39.644309 -0.704970 -27.999186 78.566577 -26.678711 1.971996 -9.133520 3.312550 -0.001634 -0.008279 -0.000725 -4.898514 -33.361169 -5.363309 0.297209 73.304558 4.284199 -12.546810 -9.733977 -2.780439 -0.000811 0.000678 -0.000360
124.376428 126.958600 32.439902 -13.524667 -28.700934 -2.174337 -1.978353 14.817681 1.817568 -0.200130 1.358264 0.187649 -0.334514 2.287270 0.313316 -1.779727 13.236017 1.647109 2.270188 14.881848 -1.323095 4.736840 -8.055291 -3.323907 -1.009575 -4.262658 -3.837230 8.586288 -14.329075 -7.737731 25.293581 -39.705475 -0.298471 5.030313 6.741769 -15.396100 -3.032208 -6.717815 -2.839235 -3.742442 -6.906580 6.903088 -31.661690 -46.394245 6.413552 -22.564133 8.136017 16.386168 -5.533861 -39.639550 -0.702319 -28.030845 78.562524 -26.710660 1.977412 -9.134436 3.314815 -0.000565 -0.009531 -0.000251 -4.896962 -33.355142 -5.367626 0.298807 73.304004 4.287117 -12.531654 -9.731722 -2.781705 0.000038 0.000709 0.000017
124.376158 126.958623 32.438792 -13.523430 -28.704320 -2.176867 -1.967307 14.816781 1.820269 -0.200068 1.360764 0.187191 -0.334671 2.288899 0.313852 -1.784270 13.239482 1.647932 2.270516 14.873130 -1.319142 4.731122 -8.066819 -3.319622 -1.012556 -4.272321 -3.834717 8.582759 -14.329859 -7.731158 25.302253 -39.702634 -0.320941 5.030922 6.737259 -15.377275 -3.041035 -6.724402 -2.833304 -3.732628 -6.909655 6.900155 -31.656047 -46.387766 6.419343 -22.563962 8.126503 16.375988 -5.535068 -39.632767 -0.698161 -28.042979 78.556758 -26.722065 1.977741 -9.135584 3.321336 -0.000708 -0.007318 -0.000314 -4.894881 -33.350753 -5.367720 0.293486 73.303335 4.284945 -12.533238 -9.728512 -2.778597 0.000095 0.000903 0.000042
124.376147 126.959291 32.439073 -13.514906 -28.714919 -2.179035 -1.972987 14.825163 1.819153 -0.200527 1.362175 0.186659 -0.331938 2.284181 0.316490 -1.780564 13.244632 1.647086 2.263599 14.864968 -1.316231 4.729869 -8.072111 -3.319694 -1.009977 -4.283191 -3.830130 8.579577 -14.335405 -7.728988 25.295216 -39.683867 -0.327631 5.030855 6.731732 -15.367203 -3.051220 -6.725490 -2.833022 -3.725160 -6.913771 6.897914 -31.659718 -46.382450 6.419743 -22.553558 8.122983 16.391752 -5.541583 -39.620580 -0.701248 -28.017236 78.559290 -26.695979 1.975127 -9.135664 3.322266 -0.000444 -0.007601 -0.000197 -4.896144 -33.338013 -5.373307 0.288648 73.301035 4.284204 -12.536721 -9.727550 -2.778196 0.000282 0.000642 0.000125
124.376336 126.959349 32.438309 -13.507915 -28.718309 -2.179963 -1.978700 14.826149 1.817875 -0.199528 1.359531 0.187819 -0.334259 2.284259 0.317717 -1.784759 13.237348 1.649803 2.262211 14.868230 -1.319526 4.734443 -8.077652 -3.320459 -1.005138 -4.273328 -3.836535 8.580628 -14.339139 -7.727513 25.286126 -39.677194 -0.333138 5.034860 6.728596 -15.356791 -3.049209 -6.715742 -2.840386 -3.718462 -6.916493 6.893692 -31.659667 -46.373857 6.423711 -22.561231 8.114571 16.392874 -5.548136 -39.616460 -0.704279 -28.025998 78.561448 -26.701866 1.979256 -9.139281 3.320232 0.000447 -0.006985 0.000199 -4.896929 -33.333943 -5.377314 0.280830 73.299534 4.277470 -12.536033 -9.725120 -2.777862 0.000035 0.000793 0.000016
124.376862 126.959290 32.437445 -13.502620 -28.720200 -2.177665 -1.984431 14.820696 1.820286 -0.200899 1.358869 0.187761 -0.335781 2.288506 0.313570 -1.785576 13.238733 1.647122 2.260619 14.862988 -1.317495 4.735272 -8.083278 -3.322859 -1.002771 -4.273779 -3.836747 8.582307 -14.338905 -7.727163 25.279984 -39.674301 -0.335735 5.034763 6.726628 -15.351854 -3.044283 -6.717674 -2.838114 -3.714528 -6.917649 6.882985 -31.667922 -46.359053 6.443149 -22.563982 8.100724 16.387700 -5.550193 -39.614445 -0.709907 -28.028653 78.562710 -26.702925 1.980878 -9.141453 3.319187 0.000246 -0.006450 0.000109 -4.897091 -33.332981 -5.378842 0.249205 73.295777 4.248473 -12.555699 -9.718293 -2.777732 -0.000813 0.000550 -0.000361
124.377325 126.959358 32.436759 -13.499280 -28.723240 -2.173949 -1.989586 14.822272 1.816139 -0.202078 1.356945 0.189291 -0.336437 2.288446 0.313249 -1.790889 13.237782 1.646337 2.265206 14.861221 -1.318753 4.736867 -8.088559 -3.323721 -0.985803 -4.278811 -3.835841 8.577355 -14.329888 -7.729340 25.272958 -39.672793 -0.339061 5.032825 6.727526 -15.341243 -3.036885 -6.721179 -2.839522 -3.705824 -6.915743 6.872424 -31.684238 -46.348275 6.456816 -22.559618 8.097810 16.393114 -5.549948 -39.611208 -0.716207 -28.027943 78.564336 -26.700348 1.980944 -9.144121 3.317921 0.000282 -0.005395 0.000125 -4.898011 -33.330250 -5.382456 0.241533 73.291902 4.235059 -12.548800 -9.713190 -2.779677 -0.000460 -0.000059 -0.000204
124.377522 126.959454 32.435952 -13.498833 -28.726283 -2.170075 -1.991844 14.823290 1.813558 -0.203231 1.355684 0.190586 -0.336414 2.288637 0.311907 -1.798816 13.234418 1.646672 2.272644 14.864612 -1.322037 4.745173 -8.095440 -3.322599 -0.975615 -4.273551 -3.839522 8.579588 -14.336316 -7.730532 25.263498 -39.667132 -0.331071 5.028903 6.729788 -15.339863 -3.030866 -6.726822 -2.842775 -3.691632 -6.910299 6.865730 -31.697480 -46.341049 6.460497 -22.557424 8.098947 16.401573 -5.545143 -39.609863 -0.721082 -28.066047 78.563883 -26.734709 1.985149 -9.145683 3.319671 0.001568 -0.005594 0.000696 -4.897854 -33.326758 -5.385814 0.237909 73.287485 4.225635 -12.534954 -9.709435 -2.783830 0.000190 -0.000251 0.000084
124.378002 126.959559 32.435147 -13.499005 -28.729404 -2.164257 -1.995182 14.822566 1.809607 -0.203625 1.356154 0.191752 -0.334928 2.290765 0.308611 -1.800286 13.234450 1.648562 2.273677 14.861850 -1.323934 4.750350 -8.103735 -3.322145 -0.966209 -4.273760 -3.838515 8.577357 -14.337627 -7.734297 25.244731 -39.663117 -0.322598 5.029484 6.728735 -15.341600 -3.028845 -6.728949 -2.844537 -3.680931 -6.913782 6.862463 -31.709594 -46.328882 6.465620 -22.553365 8.092406 16.405272 -5.535091 -39.611393 -0.731824 -28.071166 78.569003 -26.736759 1.984231 -9.144279 3.320463 0.000231 -0.007648 0.000102 -4.894526 -33.323363 -5.389933 0.219956 73.282221 4.202588 -12.528667 -9.704591 -2.783479 0.000230 -0.000395 0.000102
124.377863 126.959863 32.434420 -13.496750 -28.734495 -2.162934 -2.002225 14.818913 1.814245 -0.200989 1.363057 0.185343 -0.335278 2.291937 0.310782 -1.800244 13.235239 1.645160 2.275422 14.859179 -1.321882 4.755371 -8.109228 -3.326559 -0.963989 -4.282353 -3.837263 8.582060 -14.330348 -7.735956 25.229254 -39.660974 -0.315871 5.027103 6.726395 -15.337081 -3.035345 -6.734592 -2.842230 -3.667844 -6.913475 6.858479 -31.723917 -46.320885 6.483815 -22.545384 8.085727 16.398256 -5.534101 -39.607029 -0.736904 -28.068427 78.568468 -26.729035 1.985600 -9.142363 3.314073 0.001702 -0.007392 0.000755 -4.894535 -33.317785 -5.391269 0.204513 73.277343 4.184585 -12.526629 -9.701078 -2.784015 0.000067 -0.000544 0.000030
